<svg id="SvgjsSvg1001" width="288" height="288" xmlns="http://www.w3.org/2000/svg" version="1.1" xmlns:xlink="http://www.w3.org/1999/xlink" xmlns:svgjs="http://svgjs.com/svgjs"><defs id="SvgjsDefs1002"></defs><g id="SvgjsG1008" transform="matrix(1,0,0,1,0,0)"><svg xmlns="http://www.w3.org/2000/svg" enable-background="new 0 0 100 100" viewBox="0 0 100 100" width="288" height="288"><path d="M91,52v5.5c0,3.3-2.7,6-6,6h-3c-5.5,0-10,4.5-10,10v2H43.1L45,41.6v-0.1c0-4.4,3.6-8,8-8h0.3c0.9,0,1.7-0.6,1.9-1.5	c0.7-2.7,3.1-4.5,5.8-4.5s5.1,1.8,5.8,4.5c0.2,0.9,1,1.5,1.9,1.5H69c4.1,0,7.4,3.1,7.9,7H72c-1.1,0-2,0.9-2,2c0,1.1,0.9,2,2,2h4.4
	c-1.2,2.9-4.1,5-7.4,5h-3.3l-0.4-5.2c-0.1-1.1-1-1.9-2.1-1.8c-1.1,0.1-1.9,1-1.9,2.1l1.2,16c0.1,1.3-0.3,2.5-1.2,3.4
	c-0.9,0.9-2,1.4-3.3,1.4s-2.4-0.5-3.3-1.4c-0.9-0.9-1.3-2.1-1.2-3.4l1.2-16c0.1-1.8,1.6-3.1,3.4-3.1c1.1,0,2-0.9,2-2
	c0-1.1-0.9-2-2-2c-3.8,0-7.1,3-7.3,6.8l-1.2,16c-0.2,2.3,0.7,4.7,2.3,6.4c1.6,1.7,3.9,2.7,6.2,2.7s4.6-1,6.2-2.7
	c1.6-1.7,2.4-4.1,2.3-6.4L66,53.5h3c5.2,0,9.7-3.4,11.3-8.1l9.5,4.8C90.6,50.5,91,51.2,91,52z M75,79.5H41c-1.7,0-3,1.3-3,3
	c0,1.6,1.3,3,3,3h34c1.7,0,3-1.4,3-3C78,80.8,76.7,79.5,75,79.5z M30,23.5h-4c-1.1,0-2-0.9-2-2v-4c0-1.7-1.3-3-3-3s-3,1.3-3,3v4
	c0,1.1-0.9,2-2,2h-4c-1.7,0-3,1.3-3,3c0,1.6,1.3,3,3,3h4c1.1,0,2,0.9,2,2v4c0,1.6,1.3,3,3,3s3-1.4,3-3v-4c0-1.1,0.9-2,2-2h4
	c1.7,0,3-1.4,3-3C33,24.8,31.7,23.5,30,23.5z" fill="#593196" class="color000 svgShape"></path></svg></g></svg>