<svg xmlns="http://www.w3.org/2000/svg" xmlns:xlink="http://www.w3.org/1999/xlink" xml:space="preserve" style="shape-rendering:geometricPrecision;text-rendering:geometricPrecision;image-rendering:optimizeQuality;" viewBox="0 0 8.66666 10.833325" x="0px" y="0px" fill-rule="evenodd" clip-rule="evenodd"><defs><style type="text/css">
   
    .fil1 {fill:none}
    .fil0 {fill:black;fill-rule:nonzero}
   
  </style></defs><g><path class="fil0" d="M3.6672 5.26031l0.198563 0.062878c-0.0304921,0.110866 -0.0810787,0.19313 -0.151996,0.247028 -0.0706772,0.0536575 -0.160744,0.0806063 -0.269717,0.0806063 -0.13474,0 -0.245602,-0.0460945 -0.332358,-0.138051 -0.086752,-0.092189 -0.130248,-0.218185 -0.130248,-0.377744 0,-0.16902 0.0437323,-0.300213 0.130957,-0.393823 0.0872283,-0.093374 0.201874,-0.140177 0.344177,-0.140177 0.124102,0 0.225039,0.0366417 0.302575,0.110157 0.0463346,0.0432598 0.0808465,0.105665 0.104012,0.18698l-0.203055 0.0484606c-0.0118228,-0.0527126 -0.036878,-0.0943189 -0.0751732,-0.124811 -0.0380591,-0.0304961 -0.0843898,-0.045626 -0.13876,-0.045626 -0.0751693,0 -0.136394,0.0269488 -0.183201,0.0810827 -0.0467992,0.0538976 -0.0702008,0.141358 -0.0702008,0.26239 0,0.128358 0.0229291,0.219839 0.0692559,0.274209 0.0460984,0.0546063 0.106138,0.0817913 0.17989,0.0817913 0.0546063,0 0.101413,-0.0172559 0.140654,-0.0520079 0.0392402,-0.0345118 0.0673701,-0.0891181 0.084626,-0.163343zm0.374669 0.373256l0 -1.01528 0.328815 0c0.124579,0 0.205894,0.00520079 0.243717,0.0153661 0.0581496,0.0151299 0.107083,0.0482244 0.146323,0.0992835 0.0392402,0.0510591 0.0588622,0.117012 0.0588622,0.197618 0,0.0624055 -0.0113465,0.114886 -0.0340394,0.157197 -0.0226929,0.0425512 -0.0512992,0.0758819 -0.0862835,0.100228 -0.034748,0.0241142 -0.0702047,0.040185 -0.106138,0.0479882 -0.0489331,0.00969291 -0.119846,0.0146535 -0.212748,0.0146535l-0.133559 0 0 0.382949 -0.204949 0zm0.204949 -0.843429l0 0.287921 0.112047 0c0.0808465,0 0.134976,-0.00520079 0.162161,-0.0158386 0.027185,-0.0106378 0.0484606,-0.027185 0.064063,-0.049878 0.0153661,-0.0226929 0.0231654,-0.0489331 0.0231654,-0.0789528 0,-0.036878 -0.010874,-0.0673701 -0.032622,-0.0914843 -0.0215118,-0.023874 -0.0491693,-0.0390039 -0.0822638,-0.0449134 -0.0245827,-0.00472835 -0.073752,-0.00685433 -0.147504,-0.00685433l-0.0990472 0zm0.742256 0.843429l0 -1.01528 0.696154 0 0 0.171854 -0.490972 0 0 0.240169 0.423839 0 0 0.171854 -0.423839 0 0 0.431406 -0.205181 0z"/></g><path class="fil0" d="M2.40683 4.06374c0,0.0441811 0.0358189,0.08 0.08,0.08 0.0441811,0 0.08,-0.0358189 0.08,-0.08l0 -2.25041 2.80151 0 0.731484 0.731484 0 1.51893c0,0.0441811 0.0358189,0.08 0.08,0.08 0.0441811,0 0.08,-0.0358189 0.08,-0.08l0 -1.55205 -3.93701e-006 0c0,-0.0204724 -0.00780709,-0.0409488 -0.0234291,-0.0565669l-3.93701e-006 3.93701e-006 -0.77802 -0.77802c-0.0145039,-0.0146772 -0.0346378,-0.0237756 -0.0569016,-0.0237756l-2.91464 0c-0.0441811,0 -0.08,0.0358189 -0.08,0.08l0 2.33041zm3.853 2.12438c0,-0.0441811 -0.0358189,-0.08 -0.08,-0.08 -0.0441811,0 -0.08,0.0358189 -0.08,0.08l0 0.665213 -3.533 0 0 -0.665213c0,-0.0441811 -0.0358189,-0.08 -0.08,-0.08 -0.0441811,0 -0.08,0.0358189 -0.08,0.08l0 0.745213c0,0.0441811 0.0358189,0.08 0.08,0.08l3.693 0c0.0441811,0 0.08,-0.0358189 0.08,-0.08l0 -0.745213z"/><path class="fil0" d="M5.48147 1.73333c0,-0.0441811 -0.0358189,-0.08 -0.08,-0.08 -0.0441811,0 -0.08,0.0358189 -0.08,0.08l0 0.389177c0,0.129106 0.0527638,0.246421 0.137756,0.331417 0.0849961,0.0849921 0.202311,0.137756 0.331417,0.137756l0.389177 0c0.0441811,0 0.08,-0.0358189 0.08,-0.08 0,-0.0441811 -0.0358189,-0.08 -0.08,-0.08l-0.389177 0c-0.084937,0 -0.162217,-0.034811 -0.218291,-0.0908819 -0.0560709,-0.0560748 -0.0908819,-0.133354 -0.0908819,-0.218291l0 -0.389177z"/><path class="fil0" d="M2.04518 6.10811l4.5763 0 0 -1.96438 -4.5763 0 0 1.96438zm4.6563 0.16l-4.7363 0c-0.0441811,0 -0.08,-0.0358189 -0.08,-0.08l0 -2.12438c0,-0.0441811 0.0358189,-0.08 0.08,-0.08l4.7363 0c0.0441811,0 0.08,0.0358189 0.08,0.08l0 2.12438c0,0.0441811 -0.0358189,0.08 -0.08,0.08z"/><path class="fil0" d="M3.11986 2.5703c-0.0441811,0 -0.08,0.0358189 -0.08,0.08 0,0.0441811 0.0358189,0.08 0.08,0.08l1.72368 0c0.0441811,0 0.08,-0.0358189 0.08,-0.08 0,-0.0441811 -0.0358189,-0.08 -0.08,-0.08l-1.72368 0z"/><path class="fil0" d="M3.11986 3.01156c-0.0441811,0 -0.08,0.0358189 -0.08,0.08 0,0.0441811 0.0358189,0.08 0.08,0.08l2.42694 0c0.0441811,0 0.08,-0.0358189 0.08,-0.08 0,-0.0441811 -0.0358189,-0.08 -0.08,-0.08l-2.42694 0z"/><path class="fil0" d="M3.11986 3.45282c-0.0441811,0 -0.08,0.0358189 -0.08,0.08 0,0.0441811 0.0358189,0.08 0.08,0.08l2.42694 0c0.0441811,0 0.08,-0.0358189 0.08,-0.08 0,-0.0441811 -0.0358189,-0.08 -0.08,-0.08l-2.42694 0z"/><rect class="fil1" width="8.66666" height="8.66666"/><text x="0" y="23.66666" fill="#000000" font-size="5px" font-weight="bold" font-family="'Helvetica Neue', Helvetica, Arial-Unicode, Arial, Sans-serif">Created by IYIKON</text><text x="0" y="28.66666" fill="#000000" font-size="5px" font-weight="bold" font-family="'Helvetica Neue', Helvetica, Arial-Unicode, Arial, Sans-serif">from the Noun Project</text></svg>